<svg xmlns="http://www.w3.org/2000/svg" viewBox="0 0 100 100" fill="none">
  <!-- Running figure — white on transparent background (from run.svg, scaled to 100x100) -->
  <g transform="translate(-43.879,101.065) scale(0.013333,-0.013333)" fill="white" stroke="none">
<path d="M4895 6965 c-235 -43 -404 -121 -579 -266 -198 -164 -329 -381 -399
-659 l-21 -85 -3 -2080 c-4 -2293 -7 -2176 58 -2369 96 -289 289 -520 555
-666 97 -54 176 -85 299 -118 l100 -26 790 -3 790 -3 -30 23 c-156 116 -515
451 -619 576 -113 137 -203 293 -191 331 3 11 2 20 -3 20 -13 0 -44 86 -47
130 -1 20 -5 42 -9 49 -4 6 -5 25 -1 41 5 21 3 30 -6 30 -8 0 -3 7 9 16 12 8
22 26 22 39 0 13 5 27 10 30 8 5 7 12 -2 23 -10 12 -10 14 -1 8 9 -5 11 -2 6
10 -6 16 -7 16 -19 -1 -7 -10 -11 -22 -8 -26 3 -5 0 -17 -6 -26 -10 -16 -11
-16 -6 2 5 17 3 17 -15 -4 -11 -14 -18 -33 -16 -43 3 -9 0 -16 -5 -15 -9 2
-29 -42 -45 -98 -3 -11 -9 -69 -13 -130 l-7 -110 -1 105 c-1 68 3 127 13 165
36 135 127 253 272 352 124 84 125 84 55 10 -35 -37 -75 -91 -90 -124 -24 -52
-27 -70 -27 -163 0 -101 2 -108 37 -180 75 -154 224 -314 486 -522 225 -180
683 -503 726 -513 12 -3 204 -4 428 -3 l408 3 -173 101 c-94 56 -386 223 -647
372 -492 279 -767 444 -857 514 -76 58 -174 166 -201 220 -12 26 -25 70 -29
97 -9 76 37 164 120 231 78 64 243 145 415 204 146 50 152 52 152 34 0 -7 -46
-28 -103 -46 -226 -73 -428 -195 -471 -286 -22 -46 -20 -121 4 -174 61 -136
340 -308 910 -562 336 -149 1139 -525 1352 -631 l158 -79 337 0 c215 0 332 4
322 10 -65 38 -900 371 -1994 795 -551 214 -718 291 -863 400 -89 66 -132 131
-132 197 0 27 7 62 15 77 23 45 108 115 194 160 94 49 252 111 281 111 39 0
15 -21 -55 -49 -249 -98 -349 -192 -316 -294 39 -117 271 -238 766 -400 187
-62 649 -205 1060 -330 347 -106 903 -280 1244 -389 l344 -110 61 43 c66 46
188 150 183 156 -4 4 -868 219 -1582 393 -1446 353 -1836 482 -1942 639 -60
89 1 176 188 266 68 32 89 36 89 15 0 -5 -34 -26 -75 -46 -90 -44 -155 -108
-155 -154 0 -64 107 -143 286 -208 326 -121 1158 -298 2919 -622 182 -33 350
-65 375 -70 25 -5 48 -6 52 -2 3 4 22 39 41 77 67 133 109 290 122 459 7 83 7
88 -11 82 -79 -25 -355 -89 -474 -110 -224 -40 -368 -56 -580 -64 -503 -19
-951 28 -1400 145 -298 77 -472 159 -568 268 -68 77 -62 139 22 220 198 194
950 376 1921 465 252 23 387 26 200 4 -397 -46 -611 -78 -910 -135 -552 -106
-920 -228 -1061 -351 -84 -74 -85 -163 -3 -232 106 -90 390 -168 781 -216 741
-90 1458 -24 1978 183 l105 42 3 355 2 355 -22 -26 c-87 -99 -309 -253 -518
-358 -256 -130 -502 -207 -829 -260 -103 -17 -379 -39 -296 -24 27 5 28 6 10
13 -20 9 -20 9 1 9 11 1 25 -4 31 -10 8 -8 13 -8 18 0 4 7 1 10 -7 9 -7 -2
-12 3 -11 10 2 6 -2 12 -7 12 -6 0 -10 6 -10 14 0 10 -14 13 -62 10 -56 -3
-50 -1 52 20 511 106 853 253 1175 503 158 123 340 315 437 461 l38 57 -1 715
c0 393 -4 706 -8 696 -7 -19 -8 -19 -16 0 -4 10 -7 30 -5 44 5 55 5 130 -1
130 -4 0 -27 -12 -53 -26 l-46 -26 0 -361 c0 -199 -3 -582 -6 -852 l-7 -490
-26 -35 -26 -35 -6 425 c-3 234 -7 626 -8 872 -1 421 -2 447 -18 441 -12 -4
-11 0 5 11 20 16 22 25 22 110 0 58 4 96 12 104 9 9 9 12 0 12 -7 0 -12 11
-12 25 0 14 5 25 11 25 5 0 7 -4 4 -10 -3 -5 6 -22 20 -36 19 -19 23 -30 16
-37 -6 -6 -11 -25 -10 -41 1 -30 1 -30 9 -6 6 20 8 15 9 -25 1 -42 -3 -52 -26
-72 l-28 -23 42 14 c22 8 66 27 97 42 l56 27 0 144 c0 78 -3 143 -7 143 -5 0
-28 -12 -53 -26 -62 -36 -410 -214 -418 -214 -10 0 79 52 159 93 118 61 107
39 110 240 1 97 0 180 -4 183 -7 8 45 86 89 133 l32 34 12 -22 c12 -24 4 -44
-9 -23 -6 10 -11 9 -21 -3 -12 -14 -11 -18 1 -27 11 -8 10 -9 -4 -4 -11 3 -25
1 -35 -10 -14 -15 -14 -17 1 -25 11 -7 15 -21 14 -49 -2 -30 1 -40 13 -40 13
-1 13 -2 -1 -10 -9 -5 -15 -19 -13 -32 1 -13 3 -45 4 -73 1 -27 4 -42 7 -32 4
16 16 22 37 18 5 -1 6 4 3 12 -3 8 3 14 16 15 16 1 18 -1 8 -7 -9 -6 -10 -11
-2 -15 19 -12 12 -22 -16 -21 -22 0 -29 -5 -31 -24 -3 -19 -6 -21 -13 -10 -7
11 -9 9 -9 -8 0 -13 8 -24 21 -28 17 -6 19 -9 8 -16 -8 -5 -16 -3 -21 4 -5 8
-8 7 -8 -4 0 -25 25 -30 64 -14 24 10 34 20 30 30 -4 8 -10 13 -14 10 -4 -3
-13 2 -20 10 -11 13 -8 15 15 15 l27 0 -4 69 c-2 38 0 67 3 65 3 -2 5 34 4 79
-2 45 1 87 7 94 6 7 5 14 -2 18 -5 3 -10 22 -10 41 0 25 -4 33 -12 28 -10 -6
-10 -4 0 7 14 15 16 33 3 24 -19 -11 -20 13 -1 30 11 10 20 28 20 41 0 12 6
25 13 27 6 3 3 6 -8 6 -14 1 -16 4 -7 9 17 11 25 55 9 49 -8 -3 -14 3 -14 14
-1 11 2 17 8 14 5 -4 9 13 9 39 0 36 -3 44 -15 40 -10 -4 -15 0 -15 14 0 37
-23 121 -32 116 -4 -3 -17 -2 -29 1 -19 6 -20 7 -2 20 10 7 21 12 24 9 3 -2 2
16 -4 41 -6 28 -16 45 -28 48 -17 5 -20 22 -7 43 4 6 -3 16 -16 22 -27 12 -41
5 -26 -13 7 -8 2 -10 -20 -7 -16 2 -27 8 -24 13 3 5 9 7 14 4 14 -9 32 24 33
61 1 25 -5 41 -18 51 -11 7 -21 18 -21 23 -1 6 -2 12 -3 15 0 3 -10 1 -22 -6
-19 -10 -20 -9 -14 13 8 23 7 23 -13 5 -20 -18 -48 -15 -37 4 3 5 -1 6 -9 3
-9 -3 -13 -11 -9 -18 4 -6 -1 -5 -10 2 -9 8 -20 11 -25 8 -13 -8 -12 -59 2
-69 8 -6 8 -10 -1 -14 -16 -6 -17 -33 -2 -33 5 0 7 -4 4 -10 -3 -5 -1 -10 5
-10 6 0 8 -4 5 -10 -3 -5 -1 -10 4 -10 6 0 10 -3 9 -7 -4 -17 38 -113 49 -113
7 0 12 6 10 13 -3 16 25 16 31 -1 2 -7 -5 -16 -17 -19 -26 -7 -26 -12 -1 -91
11 -35 20 -76 20 -91 0 -15 3 -31 6 -34 9 -9 12 -77 4 -82 -4 -2 -15 32 -25
76 -34 157 -93 293 -180 414 -31 44 -59 81 -60 83 -2 2 -13 -2 -25 -8 -15 -8
-20 -8 -16 -1 4 6 2 11 -4 11 -6 0 -8 5 -4 11 4 8 9 7 15 -2 4 -7 11 -10 15
-6 8 8 -123 137 -139 137 -4 0 -5 -5 -1 -12 4 -7 3 -8 -5 -4 -6 4 -9 11 -6 16
6 10 -58 60 -108 86 -20 11 -32 12 -47 4 -14 -7 -20 -7 -20 0 0 5 -9 10 -19
10 -11 0 -23 5 -26 10 -9 14 28 13 43 -2 6 -6 15 -9 18 -5 12 11 -125 68 -225
93 -97 25 -263 44 -383 44 -56 0 -68 -3 -68 -16 0 -14 -3 -14 -16 -4 -8 8 -14
9 -13 4 4 -22 -3 -32 -38 -50 -21 -10 -71 -41 -110 -67 -44 -29 -78 -46 -85
-41 -7 4 -10 4 -6 0 9 -10 -200 -148 -215 -143 -7 2 -2 9 11 16 26 14 30 33 6
29 -10 -2 -19 2 -21 9 -5 13 34 6 43 -8 6 -10 64 26 77 48 5 7 12 11 18 8 5
-4 9 2 9 11 0 15 -2 16 -17 2 -10 -8 -26 -18 -36 -21 -10 -4 -16 -11 -12 -16
3 -6 -3 -9 -14 -8 -11 0 -18 4 -15 8 2 4 0 10 -6 14 -5 3 -10 15 -10 26 0 14
7 19 28 20 17 1 20 3 9 6 -10 3 -14 9 -10 16 4 8 2 8 -9 -1 -21 -17 -53 -5
-37 14 6 8 8 14 3 14 -14 0 -36 -16 -34 -25 5 -16 -41 -64 -56 -58 -10 4 -17
-1 -21 -16 -3 -11 -9 -18 -14 -16 -4 3 -17 -3 -29 -15 -11 -11 -22 -20 -24
-20 -3 0 -22 -17 -44 -37 -53 -51 -126 -109 -121 -97 2 6 49 50 105 100 56 49
151 133 212 187 61 55 119 105 129 113 15 11 -17 13 -228 14 l-245 0 -152
-201 c-84 -111 -152 -197 -152 -191 0 6 6 17 13 24 6 7 28 35 47 61 19 26 63
85 97 130 35 45 63 87 63 94 0 6 4 13 10 15 5 2 11 13 13 25 2 12 7 26 12 30
4 5 4 1 0 -7 -8 -13 -7 -13 10 0 16 13 -133 15 -1356 18 -1496 2 -1446 4
-1630 -54 -140 -44 -291 -130 -392 -222 -28 -26 -45 -38 -37 -27 8 11 19 23
25 27 5 4 7 10 3 13 -3 4 -16 -3 -27 -14 -12 -12 -21 -17 -21 -13 0 5 11 18
25 30 14 12 25 17 25 12 0 -6 5 -10 11 -10 6 0 8 8 5 18 -3 12 12 31 52 63
169 136 382 226 582 243 36 3 447 8 914 12 l849 6 81 56 81 57 495 5 c272 3
-191 6 -1030 7 -1210 1 -1539 -1 -1595 -12z m4286 -255 c21 -12 26 -30 7 -30
-6 0 -8 3 -4 7 4 4 -8 13 -26 19 -19 7 -25 13 -15 13 10 1 27 -4 38 -9z
m-1566 -60 c-10 -11 -23 -20 -29 -20 -6 0 0 9 14 20 32 25 38 25 15 0z m48 -7
c-7 -2 -13 -12 -13 -22 0 -17 -29 -64 -30 -48 -1 20 30 77 42 76 10 0 10 -2 1
-6z m-101 -35 c-6 -7 -25 -21 -42 -31 -31 -19 -31 -19 -19 2 7 11 15 18 17 16
3 -2 14 2 26 10 25 18 32 19 18 3z m1804 -23 c17 -16 14 -18 -10 -9 -9 3 -16
10 -16 15 0 13 9 11 26 -6z m118 -14 c3 -5 -5 -8 -18 -8 -18 0 -24 5 -23 17 1
14 5 16 19 9 9 -5 19 -13 22 -18z m-2004 -20 c0 -5 -12 -16 -27 -26 l-28 -17
25 25 c28 29 30 30 30 18z m135 -8 c-4 -10 -8 -22 -9 -28 -2 -5 -10 -27 -20
-47 -9 -21 -16 -44 -16 -53 0 -8 -4 -15 -10 -15 -5 0 -10 -6 -10 -14 0 -8 -5
-18 -11 -21 -5 -4 -3 10 6 32 9 21 28 66 42 101 14 34 27 62 30 62 3 0 2 -8
-2 -17z m1889 5 c-5 -8 -2 -9 9 -5 11 4 17 1 17 -8 0 -12 -5 -12 -25 -3 -19 8
-22 14 -13 20 18 11 20 10 12 -4z m-1294 -113 c0 -2 -9 -9 -20 -15 -16 -9 -18
-8 -14 5 5 13 34 22 34 10z m1520 -90 c0 -8 5 -15 10 -15 6 0 10 -8 10 -17 0
-15 -2 -16 -10 -3 -6 9 -13 11 -17 5 -5 -5 -15 -11 -23 -13 -13 -2 -12 0 1 10
16 13 15 43 -2 32 -5 -3 -9 0 -9 5 0 6 9 11 20 11 11 0 20 -7 20 -15z m-2187
-8 c6 3 -2 -10 -18 -31 -34 -45 -42 -41 -18 9 10 20 19 32 21 26 2 -6 9 -8 15
-4z m292 -46 c-16 -16 -32 -27 -35 -24 -4 4 50 52 60 53 3 0 -8 -13 -25 -29z
m541 -94 c28 -1 59 -8 68 -16 9 -7 16 -10 16 -6 0 4 6 2 13 -4 8 -6 18 -7 22
-3 5 4 5 -2 1 -12 -6 -17 -5 -17 11 -5 11 10 14 10 9 1 -5 -8 2 -14 24 -19 18
-3 34 -12 37 -19 3 -8 8 -12 12 -11 6 4 80 -68 82 -80 4 -22 13 -33 25 -33 14
0 22 -14 39 -69 5 -17 4 -22 -5 -16 -8 5 -11 3 -8 -6 3 -8 10 -13 16 -12 5 1
8 -7 4 -19 -3 -12 -1 -19 4 -15 16 9 14 -36 -1 -60 -8 -12 -15 -26 -15 -30 0
-4 5 -1 10 7 9 15 10 12 10 -47 0 -5 -5 -8 -12 -8 -7 0 -15 -14 -19 -32 -7
-37 -46 -89 -72 -98 -11 -4 -16 -13 -13 -22 4 -11 2 -13 -9 -9 -8 3 -15 1 -15
-5 0 -6 -4 -7 -10 -4 -5 3 -9 -2 -8 -12 6 -69 -16 -117 -25 -55 -2 15 -4 0 -3
-33 l1 -60 -33 -3 c-26 -3 -40 -14 -74 -58 -22 -30 -48 -69 -57 -87 -23 -47
-61 -47 -131 -2 -65 42 -94 44 -163 9 -71 -36 -102 -59 -128 -96 l-22 -31 45
27 c54 31 104 33 158 6 89 -45 146 -118 181 -231 27 -86 26 -101 -8 -94 -16 4
4 -8 44 -25 124 -54 190 -128 214 -240 l11 -51 29 39 c16 21 71 69 123 106
112 79 200 170 241 248 l29 56 -26 54 c-24 48 -27 66 -30 180 -1 70 1 130 4
133 13 13 49 -7 63 -35 8 -16 15 -42 15 -57 0 -15 5 -35 10 -43 17 -27 40 11
84 137 39 112 43 118 68 118 16 1 33 6 40 13 18 18 46 14 58 -8 6 -11 7 -20 3
-20 -4 0 3 -6 17 -13 22 -11 25 -19 23 -59 -1 -38 2 -47 18 -51 27 -7 25 -61
-7 -155 -35 -104 -76 -180 -138 -251 -28 -32 -80 -112 -116 -177 -140 -254
-277 -428 -398 -505 -76 -48 -114 -39 -237 61 -38 31 -106 84 -150 117 -92 69
-160 135 -217 210 l-39 51 19 39 c19 37 62 165 62 185 0 5 -27 -26 -59 -69
-71 -95 -154 -162 -258 -210 -57 -26 -90 -49 -124 -87 -26 -28 -92 -82 -148
-120 -104 -70 -185 -149 -224 -217 -18 -32 -27 -39 -54 -39 -48 0 -172 26
-233 49 -40 15 -49 16 -35 5 45 -35 139 -74 305 -128 163 -52 387 -151 465
-205 33 -23 50 -27 39 -9 -4 7 -3 8 5 4 6 -4 9 -11 6 -16 -3 -4 6 -15 20 -24
33 -22 43 -20 16 3 -12 11 -18 22 -13 25 6 3 12 0 15 -8 3 -7 17 -16 31 -18
14 -3 23 -2 20 3 -2 4 5 7 16 6 11 -1 20 -5 20 -9 0 -4 5 -8 12 -8 6 0 3 9 -7
20 -23 25 -9 26 29 1 17 -11 34 -17 39 -14 6 3 7 2 4 -4 -3 -5 22 -29 56 -53
34 -24 56 -37 49 -28 -9 11 -10 18 -2 23 5 3 10 1 10 -4 0 -6 6 -11 13 -11 18
0 67 -24 67 -32 0 -5 10 -8 21 -8 18 0 19 -2 9 -15 -11 -13 -7 -13 25 1 21 8
48 22 59 29 21 13 260 142 891 482 187 100 339 188 337 194 -1 6 2 8 8 4 5 -3
40 10 77 29 37 20 69 34 71 31 2 -2 -7 -36 -19 -76 l-24 -72 -160 -75 c-230
-107 -958 -450 -1105 -520 -75 -37 -116 -61 -102 -61 13 -1 21 -5 18 -10 -3
-5 1 -22 9 -37 8 -16 15 -35 15 -41 0 -7 4 -13 9 -13 5 0 19 -21 32 -47 34
-70 33 -244 -2 -273 -3 -3 -9 -17 -12 -32 -4 -15 -14 -33 -22 -41 -8 -8 -11
-18 -7 -22 4 -4 2 -6 -3 -5 -19 4 -38 0 -32 -6 7 -8 -17 -34 -32 -34 -6 0 -11
-5 -11 -10 0 -6 -11 -15 -25 -20 -14 -5 -25 -17 -25 -26 0 -10 -5 -14 -15 -11
-8 4 -17 2 -20 -3 -4 -6 -15 -10 -26 -10 -10 0 -19 -4 -19 -9 0 -5 -11 -11
-25 -13 -28 -6 -32 1 -12 21 6 7 -12 1 -41 -13 -80 -40 -231 -106 -244 -106
-7 0 -7 5 1 14 10 12 8 13 -8 9 -26 -7 -27 5 -3 24 15 13 15 14 -10 8 -16 -3
-28 -1 -28 5 0 5 5 10 12 10 6 0 9 2 7 5 -5 4 -236 -80 -439 -160 -131 -51
-259 -118 -309 -161 -55 -47 -76 -92 -96 -200 -24 -123 -17 -210 24 -298 17
-38 31 -78 31 -90 0 -56 -61 -61 -130 -11 -105 77 -141 139 -174 298 -19 89
-34 132 -75 208 -66 123 -69 171 -16 218 20 17 39 31 43 31 41 0 192 33 240
53 58 23 177 94 233 138 21 17 48 22 151 29 123 9 244 31 277 50 19 11 9 12
-46 1 -36 -7 -41 -6 -38 9 3 14 -7 19 -48 24 -29 3 -76 6 -104 6 -29 0 -53 4
-53 9 0 5 28 37 62 70 111 111 272 169 433 157 44 -3 91 -8 105 -12 l25 -6
-23 17 c-13 9 -51 28 -85 42 -57 24 -79 27 -262 34 -176 6 -214 11 -315 37
-192 51 -487 168 -577 229 -122 83 -183 194 -183 331 1 140 65 248 221 373 48
38 109 93 135 122 41 46 104 141 104 159 0 4 -39 -9 -87 -28 -69 -27 -95 -43
-121 -74 -72 -86 -178 -160 -325 -227 -463 -212 -515 -234 -523 -221 -4 7 -3
8 5 4 6 -4 14 0 17 8 3 9 10 13 15 10 5 -3 17 -1 26 5 33 18 -14 25 -58 8 -65
-26 -44 -10 51 38 50 25 90 47 90 50 0 7 -600 -282 -1365 -659 -242 -119 -435
-212 -430 -207 6 5 136 78 290 161 154 84 390 212 525 285 135 73 335 181 445
240 110 60 235 128 279 152 43 23 82 43 86 43 5 0 12 4 15 10 6 10 -22 3 -40
-10 -23 -17 -217 -112 -220 -108 -3 2 22 17 55 34 58 28 80 52 39 41 -14 -4
-19 -2 -16 7 3 8 -3 13 -16 13 -44 1 -49 3 -43 18 4 13 2 13 -14 5 -12 -7 -21
-7 -25 0 -9 15 -31 12 -49 -5 -8 -9 -19 -15 -23 -14 -13 2 -93 -35 -93 -43 0
-5 -8 -8 -18 -8 -10 0 -23 -5 -30 -12 -6 -6 -14 -9 -17 -6 -6 6 46 35 230 133
50 26 117 62 150 80 80 43 186 100 320 170 260 138 639 355 631 362 -2 2 -21
-4 -43 -15 -21 -11 -88 -40 -148 -65 -269 -109 -1033 -433 -1153 -488 -48 -22
-80 -34 -72 -26 13 12 454 266 933 536 70 40 127 74 127 77 0 3 -10 -1 -22 -7
-12 -6 -56 -13 -97 -15 l-76 -2 70 34 c39 18 196 88 350 155 154 67 320 141
368 165 48 25 92 42 97 39 5 -3 0 -25 -11 -49 -22 -50 -110 -368 -104 -374 2
-2 30 2 61 10 l58 14 46 144 c38 120 70 200 85 218 2 2 34 -6 73 -17 l69 -21
7 -73 c16 -175 88 -314 198 -383 53 -34 55 -30 9 22 -65 74 -83 135 -91 309
-9 167 -21 213 -75 287 -37 51 -117 118 -187 157 l-43 24 47 -48 c26 -27 61
-75 78 -107 l32 -59 -29 7 c-15 4 -88 26 -162 50 -149 49 -241 96 -303 155
l-41 39 24 26 24 26 -25 -7 c-14 -4 -50 -22 -80 -41 -89 -56 -169 -90 -270
-115 -113 -27 -189 -56 -273 -103 -93 -52 -117 -82 -127 -157 -5 -42 -21 -88
-44 -132 -20 -38 -36 -78 -36 -90 0 -36 -16 -54 -37 -41 -30 19 -36 59 -17
119 9 31 14 58 10 62 -15 15 -101 -41 -180 -117 -78 -75 -109 -92 -132 -71 -5
5 -20 11 -34 13 -22 3 -25 8 -24 41 1 20 -3 37 -7 37 -17 0 -9 47 11 73 18 22
19 29 8 48 -12 19 -7 26 67 95 63 59 106 88 199 135 138 70 195 107 343 225
59 48 138 107 176 132 37 25 67 47 67 49 0 6 -56 -28 -135 -80 -35 -24 -52
-31 -41 -18 11 11 17 21 14 21 -3 0 -61 -32 -129 -71 -123 -71 -560 -287
-1109 -546 -451 -214 -470 -223 -470 -218 0 3 37 23 83 46 45 23 129 67 187
99 58 32 137 74 175 95 39 20 117 63 175 95 58 31 184 99 280 150 96 52 193
103 215 115 90 50 385 210 450 245 267 143 392 208 405 213 10 4 8 6 -6 6 -33
1 -190 -46 -278 -84 -44 -19 -81 -33 -83 -31 -4 4 90 58 182 104 177 88 359
112 525 69 136 -35 389 -132 377 -144 -3 -2 -39 7 -80 21 -150 52 -235 67
-387 71 -80 2 -130 1 -112 -2 18 -2 30 -8 27 -14 -3 -5 0 -6 8 -3 8 3 19 -1
25 -8 9 -11 5 -14 -15 -16 -15 -1 -28 -4 -30 -5 -1 -2 92 -23 208 -46 116 -23
214 -40 217 -37 3 4 -2 6 -11 6 -9 0 -19 4 -22 10 -4 6 2 7 17 1 13 -4 29 -6
36 -4 6 3 12 0 12 -6 0 -6 -6 -11 -12 -12 -7 0 12 -9 42 -20 30 -11 61 -17 68
-14 8 3 10 0 6 -7 -5 -8 -2 -9 9 -5 10 4 17 1 18 -6 0 -9 2 -9 5 0 3 7 12 9
19 7 8 -3 28 1 44 9 35 17 178 13 209 -7 6 -3 13 -2 17 4 4 6 20 2 43 -10 20
-11 41 -20 45 -20 17 0 67 -42 62 -51 -4 -5 1 -6 9 -3 9 3 16 2 16 -4 0 -5 9
-12 20 -15 11 -3 20 -9 19 -14 -4 -17 27 -68 41 -68 8 0 21 -5 28 -12 17 -16
52 0 53 25 1 9 2 36 3 59 0 23 4 45 8 49 4 4 2 14 -5 22 -9 13 -9 14 1 8 17
-10 15 10 -4 28 -9 10 -33 16 -58 16 -24 0 -76 9 -117 19 -75 19 -175 58 -168
65 2 2 33 -2 69 -10 81 -17 208 -18 286 -2 48 10 55 13 34 18 -24 7 -24 7 10
17 27 7 10 9 -70 5 -110 -4 -246 13 -336 44 -57 19 -197 85 -192 90 2 2 32 -5
66 -15 127 -39 246 -54 375 -48 114 5 306 36 279 45 -19 6 -14 18 14 31 18 8
24 17 20 27 -4 11 -2 15 7 11 7 -3 23 6 36 19 13 13 32 24 42 24 11 0 22 7 26
16 3 8 15 14 27 13 44 -3 71 1 58 9 -7 5 8 7 35 5 26 -3 71 -5 99 -6z m1714
-72 c4 3 7 -3 5 -12 -2 -10 -4 -22 -4 -27 -1 -5 -4 -6 -8 -3 -3 4 -11 3 -17
-2 -6 -5 -22 -4 -36 1 -25 10 -24 10 15 23 33 11 41 20 13 16 -4 0 -5 6 -1 15
5 15 7 15 15 0 5 -9 13 -14 18 -11z m79 -242 c0 -25 -1 -25 -8 -8 -5 11 -7 23
-4 28 8 14 13 7 12 -20z m-3051 -10 c-9 -11 -9 -16 3 -24 11 -7 9 -9 -8 -9
-25 0 -29 10 -11 28 9 9 9 12 -2 13 -8 1 -19 1 -23 0 -5 -1 -6 3 -3 7 3 5 17
7 31 4 21 -4 23 -7 13 -19z m-1801 -265 l-22 -63 -100 -50 c-55 -27 -226 -106
-380 -174 -154 -68 -284 -126 -290 -129 -7 -3 -7 -2 0 5 24 24 786 470 807
472 4 1 -3 -27 -15 -61z m4653 -195 c0 -22 -2 -25 -10 -13 -8 12 -10 12 -10 1
0 -8 -3 -12 -6 -9 -6 6 13 48 21 48 3 0 5 -12 5 -27z m-53 -50 c-7 -16 -12
-37 -10 -48 3 -15 2 -17 -6 -6 -8 12 -12 12 -26 -2 -25 -25 -29 -20 -10 11 18
28 56 72 62 72 2 0 -3 -12 -10 -27z m-92 -109 c-14 -14 -28 -24 -31 -22 -6 6
35 48 47 48 5 0 -2 -12 -16 -26z m-145 -156 l-53 -53 49 57 c26 32 50 56 52
53 3 -2 -19 -28 -48 -57z m-79 -232 c-6 -8 -21 -16 -32 -19 -24 -6 -19 1 13
19 31 16 32 16 19 0z m-4021 -122 c-12 -34 -22 -41 -154 -104 -349 -168 -699
-328 -676 -310 23 17 277 164 675 388 169 96 178 97 155 26z m4340 1 c0 -7
-71 -41 -100 -49 -14 -3 2 8 35 24 65 32 65 32 65 25z m258 -146 c0 -28 -1
-49 -3 -47 -9 9 -14 98 -6 98 6 0 10 -23 9 -51z m-1110 -102 c-151 -302 -318
-458 -592 -553 -100 -34 -103 -29 -9 15 259 123 472 326 603 573 52 100 50 72
-2 -35z m-4978 -362 c4 -680 -1 -1236 -10 -1230 -6 4 -8 16 -4 27 5 17 3 18
-13 10 -17 -9 -19 -7 -22 21 -6 72 -5 82 6 82 6 0 15 4 20 8 4 5 4 8 -2 7 -36
-8 -36 -11 -35 465 1 323 4 467 12 471 7 5 9 -2 6 -20 -6 -29 -6 -28 16 -20
14 5 16 33 16 202 0 107 2 193 4 191 3 -3 5 -99 6 -214z m1477 119 c2 -7 -6
-10 -21 -7 -14 3 -23 10 -20 15 8 12 36 6 41 -8z m795 -68 l-36 -84 -140 -62
c-78 -35 -172 -78 -211 -95 -38 -18 -182 -83 -320 -145 -303 -135 -397 -178
-909 -410 -220 -99 -401 -179 -402 -177 -2 2 70 41 159 86 89 46 167 87 172
91 6 4 136 71 290 150 154 78 395 201 535 273 215 111 892 456 896 457 1 0
-15 -38 -34 -84z m1741 37 c8 -14 -12 -52 -36 -68 -56 -36 -257 -108 -257 -91
0 4 95 64 195 123 71 42 90 49 98 36z m-2533 -82 c0 -5 -14 -14 -32 -20 -34
-12 -32 -6 4 15 13 6 24 12 26 13 1 1 2 -3 2 -8z m-1516 -114 c-10 -26 -22
-20 -16 9 3 15 8 22 14 16 5 -5 6 -16 2 -25z m5341 -193 c-10 -33 -22 -64 -29
-70 -6 -7 -38 -23 -71 -36 -349 -143 -497 -204 -590 -243 -60 -25 -117 -49
-125 -52 -37 -15 7 12 160 97 141 79 244 136 615 340 28 15 51 27 53 25 2 -2
-4 -29 -13 -61z m-1297 -46 c22 -13 30 -24 22 -26 -7 -3 -19 3 -25 12 -7 9
-17 16 -23 16 -6 0 -14 5 -17 10 -10 16 5 12 43 -12z m-1651 -79 l42 -58 -34
-27 c-19 -14 -32 -31 -29 -36 3 -5 -2 -15 -11 -22 -16 -11 -16 -14 -1 -29 9
-9 23 -14 30 -11 8 3 17 0 22 -7 4 -8 3 -10 -4 -5 -7 4 -12 1 -12 -9 0 -13 4
-14 20 -5 15 8 24 6 39 -9 11 -11 22 -16 26 -13 4 4 6 -10 3 -30 -4 -35 -3
-37 21 -31 15 4 22 2 18 -4 -4 -6 0 -13 8 -17 8 -3 17 -1 20 4 4 6 11 10 16
10 6 0 8 -4 5 -9 -4 -5 3 -7 14 -4 12 3 20 0 20 -6 0 -7 5 -9 10 -6 6 3 10 0
10 -7 0 -9 3 -9 10 2 9 13 13 11 31 -10 11 -14 18 -19 14 -12 -3 6 -1 12 5 12
7 0 34 22 61 49 27 27 49 46 49 42 0 -3 -52 -59 -115 -123 -71 -73 -169 -158
-257 -224 -85 -63 -176 -141 -224 -193 -84 -90 -95 -96 -241 -151 -132 -50
-556 -313 -703 -435 -41 -35 -114 -103 -161 -152 -126 -129 -256 -337 -266
-425 -4 -38 -1 -48 31 -88 70 -87 31 -148 -68 -106 -48 20 -107 75 -127 121
-25 54 -24 153 1 233 24 75 26 110 15 259 l-8 112 36 36 35 35 95 0 95 0 59
45 c64 48 138 117 194 181 34 38 44 42 125 58 118 24 229 65 295 111 58 40 58
40 -14 6 -54 -25 -102 -21 -57 5 19 11 20 14 5 10 -11 -3 -38 -9 -60 -15 -60
-14 -175 -24 -175 -14 0 14 65 106 115 161 26 28 45 52 43 52 -1 0 -52 -13
-113 -29 -118 -31 -253 -86 -356 -145 -64 -36 -64 -36 -29 -5 105 92 294 205
447 266 115 47 147 56 276 82 197 40 278 100 377 283 36 66 110 180 165 254
82 110 102 131 110 118 6 -9 29 -43 52 -75z m-247 39 c-18 -24 -50 -68 -72
-99 l-40 -56 -436 -173 c-240 -96 -470 -189 -511 -207 -40 -19 -75 -32 -78
-30 -2 3 31 22 74 44 343 176 1006 521 1038 540 57 32 61 29 25 -19z m2090
-999 c-25 -5 -135 -23 -245 -40 -287 -44 -595 -102 -780 -145 -88 -20 -171
-39 -185 -41 l-25 -4 22 19 c12 11 59 27 107 37 48 10 84 20 82 22 -3 3 -39
-2 -81 -11 -90 -19 -98 -19 -90 -6 17 28 344 82 835 140 146 17 272 32 280 34
8 2 40 4 70 4 l55 0 -45 -9z m-2080 -319 c-559 -164 -909 -333 -1145 -552 -72
-67 -77 -70 -55 -33 93 157 173 251 240 285 211 106 463 191 875 295 262 67
302 69 85 5z m2165 -221 c-22 -4 -56 -7 -75 -7 -32 1 -31 2 10 8 25 4 59 7 75
7 25 1 23 -1 -10 -8z m-3029 -495 c-4 -14 -9 -24 -12 -21 -3 2 -2 17 2 31 3
15 9 25 11 22 3 -3 2 -17 -1 -32z m-522 -251 c-9 -38 -14 -41 -14 -10 0 25 -3
26 -57 30 l-58 3 68 2 67 2 -6 -27z"/>
<path d="M7130 5724 l-25 -15 25 5 c14 3 34 6 45 6 17 0 17 2 5 10 -19 12 -20
12 -50 -6z"/>
<path d="M7767 5463 c-2 -5 -1 -19 4 -33 7 -23 7 -23 8 8 1 31 -3 40 -12 25z"/>
<path d="M6820 4057 c0 -17 62 -97 93 -121 39 -29 112 -66 129 -66 8 0 6 5 -4
11 -24 14 -23 26 4 35 18 5 10 11 -47 32 -78 27 -119 52 -152 91 -13 14 -23
22 -23 18z"/>
<path d="M4050 2990 c0 -18 4 -29 10 -25 6 3 10 15 10 25 0 10 -4 22 -10 25
-6 4 -10 -7 -10 -25z"/>
<path d="M6369 3553 l-34 -37 43 33 c23 18 42 35 42 37 0 13 -20 0 -51 -33z"/>
<path d="M6011 3231 c-6 -10 -21 -21 -33 -25 -13 -3 -41 -22 -63 -41 -22 -19
-32 -32 -22 -29 13 5 16 2 11 -10 -3 -8 -15 -18 -26 -22 -11 -3 -17 -8 -14
-11 9 -9 72 35 109 76 35 39 62 81 53 81 -3 0 -10 -8 -15 -19z"/>
<path d="M7985 6918 c-25 -34 -45 -64 -45 -68 0 -3 114 -5 254 -4 l255 0 46
40 c26 21 61 51 78 66 l32 27 -287 1 -288 0 -45 -62z"/>
<path d="M8653 6973 c15 -2 37 -2 50 0 12 2 0 4 -28 4 -27 0 -38 -2 -22 -4z"/>
<path d="M7048 6952 c-14 -2 -32 -10 -38 -18 -7 -8 -18 -14 -24 -14 -7 0 -27
-15 -46 -32 -18 -18 -30 -26 -25 -18 8 13 7 13 -10 0 -16 -13 38 -15 500 -18
534 -2 544 -2 530 36 -2 6 0 12 6 12 6 0 7 5 4 10 -3 6 -1 10 5 10 14 0 45 30
33 31 -32 4 -99 -4 -101 -12 -3 -6 -8 -6 -15 0 -16 12 -117 19 -117 7 0 -5 -6
-4 -12 1 -7 6 -41 11 -75 11 -60 2 -69 -2 -64 -30 0 -5 -4 -8 -10 -8 -6 0 -9
6 -6 14 3 8 0 16 -6 19 -14 5 -488 5 -529 -1z m629 -72 c1 -11 -2 -20 -8 -20
-10 0 -12 23 -2 33 9 9 9 10 10 -13z"/>
<path d="M8960 6935 c0 -9 -4 -14 -8 -11 -5 3 -19 -5 -33 -17 -39 -36 -78 -46
-177 -45 -51 0 -95 -2 -98 -5 -3 -3 61 -6 141 -6 131 -1 185 -6 315 -26 34 -5
34 -5 7 6 -28 11 -28 29 -1 29 8 0 13 -4 10 -9 -4 -5 2 -8 11 -7 10 2 20 0 23
-5 3 -4 12 -4 20 1 19 12 10 20 -30 25 -33 4 -78 35 -52 35 7 0 10 5 7 10 -3
6 1 10 9 10 19 0 21 -16 4 -23 -10 -4 -9 -8 2 -16 11 -8 18 -6 28 6 11 16 12
15 12 -1 0 -14 3 -16 13 -8 7 6 19 7 26 3 7 -5 28 -5 46 -1 26 6 35 4 40 -7 4
-12 -1 -14 -20 -11 -14 3 -28 2 -31 -3 -2 -4 -12 -5 -20 -2 -14 5 -14 3 -3
-15 8 -13 16 -17 20 -11 4 7 9 4 13 -6 3 -10 11 -13 18 -9 9 5 8 2 -1 -9 -8
-10 -12 -19 -10 -20 10 -6 80 -37 85 -37 3 0 2 5 -1 10 -3 6 1 10 10 10 11 0
15 -5 12 -14 -4 -10 2 -18 16 -22 28 -10 48 -6 69 13 11 9 18 11 23 4 8 -14
45 -14 45 -1 0 6 -7 10 -15 10 -8 0 -15 4 -15 8 0 5 15 7 33 4 l32 -4 -35 31
c-19 17 -27 28 -17 25 9 -3 17 -10 17 -16 0 -5 5 -6 10 -3 17 10 11 21 -15 33
-31 14 -48 15 -41 3 4 -5 -2 -8 -11 -6 -10 2 -21 4 -25 4 -5 1 -8 6 -8 12 0 5
4 8 9 4 5 -3 12 -1 15 4 3 4 -20 16 -52 25 -31 10 -63 20 -71 23 -9 3 -11 1
-7 -6 4 -6 1 -11 -8 -11 -9 0 -16 4 -16 10 0 5 -6 8 -12 6 -41 -13 -68 -15
-68 -6 0 5 15 10 33 10 24 0 28 3 17 10 -8 5 -31 10 -51 10 -20 0 -39 3 -42 6
-4 4 -49 9 -102 11 -82 3 -95 1 -95 -12z m368 -77 c3 -15 7 -16 19 -7 11 10
11 14 1 20 -9 6 -9 9 -1 9 21 0 25 -21 7 -35 -16 -11 -21 -11 -35 1 -14 12
-18 13 -22 2 -3 -7 -6 -4 -6 8 -1 26 30 28 37 2z m-305 0 c-2 -5 -15 -8 -29
-8 -14 0 -23 4 -20 9 3 5 17 8 30 7 13 0 22 -4 19 -8z"/>
<path d="M9527 6804 c-3 -4 1 -17 10 -30 15 -23 17 -23 33 -9 17 15 20 15 40
-7 l22 -23 -12 23 c-6 13 -27 30 -45 38 -39 16 -40 16 -48 8z"/>
<path d="M8385 6762 c-5 -4 -11 -14 -13 -22 -3 -12 -1 -12 9 -3 10 10 16 10
30 -3 15 -13 17 -13 22 0 4 10 -1 20 -13 26 -22 12 -22 12 -35 2z"/>
<path d="M9414 6705 c10 -8 24 -11 29 -8 6 4 2 10 -9 14 -31 12 -40 9 -20 -6z"/>
<path d="M9780 6675 c19 -19 36 -35 39 -35 3 0 -10 16 -29 35 -19 19 -36 35
-39 35 -3 0 10 -16 29 -35z"/>
<path d="M9748 6663 c12 -8 22 -20 22 -25 0 -6 -5 -7 -13 -2 -7 5 -4 0 8 -10
14 -13 16 -20 7 -23 -6 -3 -9 -9 -6 -14 3 -6 11 -3 18 7 7 9 18 14 23 11 16
-10 25 -59 14 -70 -8 -8 -11 -1 -12 24 0 18 -3 28 -6 22 -2 -7 -18 -13 -34
-13 -21 0 -28 4 -23 12 5 8 2 9 -9 5 -10 -3 -17 -2 -17 4 0 5 -11 6 -27 2 -16
-3 -37 -6 -48 -5 -20 1 -20 0 -1 -13 10 -8 23 -12 27 -9 5 3 9 0 9 -5 0 -6 -8
-11 -17 -11 -22 1 -53 23 -53 39 0 7 -5 9 -11 5 -12 -7 47 -74 65 -74 6 0 4 5
-4 10 -12 8 -12 10 5 10 25 0 50 -36 33 -46 -7 -4 -8 -3 -4 4 4 8 0 12 -10 12
-14 0 -8 -10 22 -42 23 -24 50 -56 62 -72 14 -18 22 -23 22 -13 0 8 -6 17 -12
20 -10 3 -10 8 1 21 12 14 12 16 -2 10 -12 -4 -14 -1 -10 15 3 12 1 21 -6 21
-6 0 -11 -4 -11 -10 0 -5 -6 -10 -12 -10 -7 1 -3 9 10 20 13 10 30 16 37 13 9
-3 15 1 15 10 0 8 -7 18 -16 21 -8 3 -12 2 -9 -3 3 -5 1 -12 -5 -16 -5 -3 -10
1 -10 10 0 9 -6 15 -14 13 -8 -2 -14 1 -13 7 2 12 61 6 85 -9 8 -5 11 -3 10 5
-2 7 3 14 10 15 6 1 17 2 22 3 6 0 10 5 10 11 0 14 -119 130 -133 129 -7 0 -2
-7 11 -16z"/>
<path d="M9890 6524 c0 -5 -9 -20 -21 -33 -24 -26 -18 -57 9 -46 35 15 65 18
58 6 -4 -6 -2 -11 3 -11 18 0 13 28 -7 42 -10 7 -24 22 -30 33 -6 11 -12 15
-12 9z m14 -49 c-6 -14 -34 -29 -41 -21 -8 8 8 27 18 21 5 -4 9 1 9 10 0 9 4
14 10 10 5 -3 7 -12 4 -20z"/>
<path d="M9810 6476 c0 -9 7 -16 16 -16 9 0 14 5 12 12 -6 18 -28 21 -28 4z"/>
<path d="M9808 6429 c14 -16 16 -33 2 -24 -14 9 -12 -8 3 -24 10 -11 10 -13 0
-7 -8 4 -13 1 -13 -8 0 -18 2 -19 24 -10 9 3 13 11 9 17 -3 5 -6 21 -7 35 -1
14 -8 27 -16 30 -12 4 -13 2 -2 -9z"/>
<path d="M9840 6416 c0 -6 9 -12 20 -12 11 0 20 3 20 7 0 4 -9 9 -20 12 -12 3
-20 0 -20 -7z"/>
<path d="M9929 6408 c-11 -22 -11 -22 7 -7 10 9 26 19 34 22 10 4 8 6 -7 6
-13 1 -27 -8 -34 -21z"/>
<path d="M10040 6267 c0 -8 7 -17 15 -21 8 -3 15 -2 15 3 0 5 -7 14 -15 21
-12 10 -15 10 -15 -3z"/>
<path d="M7190 2111 c0 -6 4 -11 8 -11 5 0 22 -11 38 -25 16 -14 33 -25 38
-25 5 0 17 -6 25 -14 26 -22 79 -37 87 -24 4 7 2 8 -4 4 -7 -4 -12 -2 -12 3 0
6 8 11 18 11 15 1 14 2 -3 12 -11 7 -51 24 -90 39 -38 14 -78 30 -87 34 -11 4
-18 3 -18 -4z"/>
  </g>
</svg>
